<?xml version="1.0" standalone="no"?>
<!DOCTYPE svg PUBLIC "-//W3C//DTD SVG 20010904//EN"
 "http://www.w3.org/TR/2001/REC-SVG-20010904/DTD/svg10.dtd">
<svg version="1.0" xmlns="http://www.w3.org/2000/svg"
 width="414.000000pt" height="414.000000pt" viewBox="0 0 414.000000 414.000000"
 preserveAspectRatio="xMidYMid meet">
<metadata>
Created by potrace 1.14, written by Peter Selinger 2001-2017
</metadata>
<g transform="translate(0.000000,414.000000) scale(0.100000,-0.100000)"
fill="#000000" stroke="none">
<path d="M1919 4100 c-8 -5 -27 -7 -42 -6 -15 2 -27 0 -27 -4 0 -3 -14 -4 -31
-2 -24 3 -30 1 -24 -8 6 -9 3 -10 -12 -1 -11 6 -23 8 -26 5 -4 -5 -63 -15 -94
-17 -7 0 -13 -3 -13 -7 0 -3 -13 -5 -30 -4 -16 1 -30 -3 -30 -8 0 -6 -6 -8
-14 -5 -8 3 -17 3 -20 -1 -7 -6 -24 -11 -61 -16 -11 -2 -27 -6 -35 -9 -17 -7
-130 -46 -145 -50 -10 -3 -90 -38 -135 -60 -14 -7 -28 -16 -32 -22 -4 -5 -8
-7 -8 -2 0 4 -17 -3 -37 -16 -21 -12 -55 -31 -75 -42 -21 -11 -38 -23 -38 -28
0 -4 -4 -5 -10 -2 -5 3 -10 1 -10 -6 0 -7 -3 -10 -6 -6 -3 3 -15 -2 -25 -12
-11 -10 -31 -24 -46 -32 -15 -8 -37 -23 -49 -34 -37 -34 -54 -46 -54 -40 0 3
-11 -5 -24 -19 -13 -15 -29 -26 -35 -26 -7 0 -9 -4 -6 -10 3 -5 2 -10 -4 -10
-13 0 -191 -177 -191 -190 0 -6 -4 -8 -10 -5 -5 3 -10 3 -10 -2 0 -4 -13 -22
-28 -40 -61 -72 -87 -107 -84 -115 1 -4 -2 -8 -7 -8 -6 0 -16 -11 -23 -24 -12
-24 -96 -167 -125 -213 -7 -13 -12 -24 -11 -25 2 -2 -7 -16 -18 -33 -12 -16
-25 -40 -28 -52 -4 -13 -12 -23 -17 -23 -5 0 -8 -3 -8 -7 1 -5 0 -11 -1 -15
-1 -5 -4 -12 -5 -18 -1 -5 -4 -12 -5 -15 -1 -3 -3 -8 -4 -12 -1 -5 -10 -22
-19 -40 -9 -18 -17 -41 -17 -53 0 -11 -4 -20 -9 -20 -9 0 -27 -72 -24 -97 0
-7 -4 -13 -9 -13 -5 0 -8 -6 -5 -12 2 -7 1 -20 -4 -29 -11 -22 -20 -65 -26
-129 -3 -30 -9 -56 -14 -58 -4 -2 -4 -15 2 -29 5 -15 6 -30 1 -37 -5 -6 -9
-18 -10 -26 -2 -101 -3 -176 -2 -180 6 -18 4 -73 -4 -77 -4 -3 -2 -9 5 -14 11
-7 11 -9 1 -9 -10 0 -10 -5 -2 -20 7 -13 7 -20 1 -20 -7 0 -7 -9 -1 -25 6 -16
6 -25 -1 -25 -6 0 -6 -6 0 -19 6 -10 8 -21 5 -24 -3 -3 -3 -11 2 -18 6 -11 10
-33 17 -119 2 -14 5 -30 8 -35 3 -6 6 -23 7 -40 3 -31 9 -70 12 -70 1 0 4 -13
6 -29 2 -16 6 -36 10 -45 4 -9 9 -27 11 -41 2 -14 11 -36 20 -49 8 -13 10 -20
4 -17 -6 4 -11 2 -11 -3 0 -6 5 -11 10 -11 6 0 9 -3 8 -7 -4 -13 44 -133 53
-133 5 0 6 -7 3 -15 -4 -8 -1 -15 5 -15 6 0 11 -9 11 -20 0 -11 3 -20 8 -20 4
0 18 -24 31 -52 13 -29 32 -64 41 -78 9 -14 30 -45 46 -70 16 -25 32 -46 37
-48 4 -2 7 -10 7 -17 0 -8 8 -19 17 -24 10 -6 14 -11 10 -11 -5 0 -2 -6 5 -14
7 -8 22 -26 33 -40 34 -44 79 -98 102 -122 13 -13 23 -27 23 -33 0 -5 9 -13
21 -16 11 -4 18 -9 16 -12 -7 -6 138 -153 150 -153 5 0 15 -9 23 -19 7 -11 17
-18 22 -15 4 3 11 -2 14 -10 3 -9 10 -16 16 -16 5 0 29 -14 54 -30 24 -17 44
-27 44 -23 0 4 5 0 11 -9 5 -10 18 -18 29 -18 10 0 20 -5 22 -11 2 -5 10 -11
18 -13 8 -2 29 -9 45 -16 17 -8 35 -14 40 -14 6 -1 15 -6 20 -12 8 -8 185 -86
205 -90 3 0 14 -4 25 -9 70 -29 115 -44 115 -39 0 4 6 2 13 -4 7 -6 24 -13 37
-16 14 -3 52 -13 85 -22 33 -9 71 -18 85 -19 14 -2 25 -4 25 -5 0 -3 37 -10
75 -14 19 -2 53 -7 75 -11 22 -4 81 -8 130 -10 50 -2 92 -4 95 -5 3 -1 10 -1
15 0 6 2 42 4 80 5 123 4 175 8 175 15 0 3 17 7 38 8 33 1 77 8 77 12 0 1 16
3 35 6 49 6 75 11 78 14 2 3 5 4 47 14 17 4 37 10 45 13 8 4 18 7 23 8 4 2 10
4 15 5 4 2 12 4 17 5 6 1 24 7 40 14 17 7 38 13 48 14 9 1 17 4 17 8 0 7 31
20 59 25 8 2 18 9 22 16 5 7 9 9 9 5 0 -7 57 21 195 96 22 12 45 25 50 30 6 4
35 23 65 43 30 20 63 46 74 58 10 11 20 19 21 16 12 -20 394 361 395 393 0 5
5 5 10 2 6 -3 10 -1 10 4 0 6 0 13 0 16 0 2 12 16 26 30 14 15 22 30 18 38 -4
6 -4 9 1 5 8 -8 55 44 55 62 0 6 9 23 20 37 11 14 20 32 20 39 0 8 4 14 8 14
5 0 14 16 22 35 8 19 17 35 22 35 4 0 5 7 2 15 -4 8 -1 15 6 15 7 0 10 6 7 14
-3 8 1 17 10 20 9 4 13 9 10 12 -3 3 6 28 20 56 14 27 26 55 27 62 1 6 7 21
14 32 6 12 9 24 5 27 -3 4 -1 12 5 20 6 7 12 24 14 37 2 14 7 31 11 38 5 6 5
17 2 22 -3 6 -1 10 6 10 6 0 9 8 6 20 -3 11 -1 22 3 25 5 3 7 14 5 25 -2 11 0
20 5 20 5 0 7 9 5 20 -2 11 1 20 7 20 7 0 6 6 -2 15 -10 12 -10 15 0 15 7 0
10 7 6 15 -3 8 -2 15 3 15 5 0 8 20 6 45 -1 25 3 45 8 45 5 0 4 6 -2 14 -9 11
-8 14 5 12 9 0 18 7 19 17 2 11 -1 15 -8 10 -7 -4 -6 1 2 11 13 15 13 19 0 27
-12 7 -12 9 1 9 13 0 16 17 15 103 0 56 -4 108 -8 115 -5 7 -3 12 4 12 9 0 9
4 -1 15 -6 8 -9 19 -5 25 3 5 0 10 -7 10 -9 0 -9 3 2 10 9 6 11 13 5 18 -13 9
-17 25 -21 92 -4 74 -18 174 -25 190 -1 3 -3 10 -4 15 -7 52 -17 85 -25 85 -5
0 -7 7 -4 15 4 8 0 23 -7 32 -8 9 -13 18 -11 20 1 1 2 4 1 6 0 1 -2 9 -4 17
-1 9 -11 36 -22 60 -30 68 -36 84 -35 93 1 4 -2 7 -8 7 -5 0 -10 8 -10 18 0
10 -4 22 -9 27 -4 6 -28 48 -52 95 -37 73 -112 194 -129 210 -3 3 -17 21 -30
40 -13 19 -29 40 -35 46 -5 6 -30 35 -55 65 -50 60 -260 273 -260 264 0 -4 -6
0 -14 7 -37 36 -117 94 -123 90 -2 -1 -15 10 -29 23 -15 14 -32 25 -38 25 -6
0 -19 8 -28 18 -28 29 -46 41 -52 35 -3 -4 -6 -1 -6 6 0 7 -4 10 -9 6 -5 -3
-12 -1 -16 5 -6 10 -207 110 -228 114 -6 1 -16 4 -22 7 -10 7 -77 29 -98 33
-7 2 -20 6 -29 9 -10 4 -26 10 -35 14 -10 3 -29 8 -43 10 -14 2 -36 8 -50 13
-14 5 -41 11 -60 14 -19 3 -48 7 -65 11 -16 3 -49 7 -72 9 -22 2 -45 6 -50 9
-5 3 -37 7 -71 8 -34 1 -62 5 -62 8 0 9 -43 6 -58 -3 -7 -4 -12 -3 -12 2 0 12
-83 10 -92 -3 -5 -6 -8 -5 -8 3 0 8 -5 10 -12 5 -16 -9 -51 -10 -58 -1 -3 3
-12 3 -21 -2z"/>
</g>
</svg>
